<!DOCTYPE svg PUBLIC "-//W3C//DTD SVG 1.1//EN" "http://www.w3.org/Graphics/SVG/1.1/DTD/svg11.dtd">
<!-- Uploaded to: SVG Repo, www.svgrepo.com, Transformed by: SVG Repo Mixer Tools -->
<svg fill="#ffffff" version="1.1" id="Layer_1" xmlns="http://www.w3.org/2000/svg" xmlns:xlink="http://www.w3.org/1999/xlink" viewBox="0 0 496 496" xml:space="preserve" width="800px" height="800px" stroke="#ffffff">
<g id="SVGRepo_bgCarrier" stroke-width="0"/>
<g id="SVGRepo_tracerCarrier" stroke-linecap="round" stroke-linejoin="round"/>
<g id="SVGRepo_iconCarrier"> <g> <g> <g> <path d="M272,320h192V192H272V320z M288,208h160v96H288V208z"/> <rect x="448" y="336" width="16" height="16"/> <rect x="384" y="336" width="48" height="16"/> <path d="M32,432c-17.648,0-32,14.352-32,32s14.352,32,32,32s32-14.352,32-32S49.648,432,32,432z M32,480c-8.824,0-16-7.176-16-16 c0-8.824,7.176-16,16-16s16,7.176,16,16C48,472.824,40.824,480,32,480z"/> <rect x="80" y="456" width="16" height="16"/> <rect x="112" y="456" width="16" height="16"/> <rect x="144" y="456" width="16" height="16"/> <rect x="176" y="456" width="16" height="16"/> <rect x="208" y="456" width="16" height="16"/> <rect x="24" y="400" width="16" height="16"/> <rect x="24" y="368" width="16" height="16"/> <path d="M496,16V0H372.96l-39.432,35.048C298.44,12.184,257.992,0,216,0C96.896,0,0,96.896,0,216 c0,44.376,13.464,85.656,36.504,120H24v16h16v-11.016C79.192,396.008,143.448,432,216,432c8.008,0,16.024-0.6,24-1.488V464 c0,17.648,14.352,32,32,32h224v-16c-8.824,0-16-7.176-16-16c0-8.824,7.176-16,16-16V160h-71.568c-1.44-5.352-3.104-10.68-5-16 H496v-16H384v-24h112V88H384V56h112V40H384V16H496z M192.048,17.488c-20.72,19.192-53.048,55.4-72.232,108.056 c-34.088-7.856-56.864-18.144-67.768-23.88C83.912,56.112,134.216,24.424,192.048,17.488z M43.344,115.232 c11.4,6.184,35.336,17.288,71.432,25.704c-5.968,20.208-9.88,42.576-10.592,67.064H16.2 C17.536,174.272,27.264,142.688,43.344,115.232z M16.2,224h87.984c0.712,24.488,4.624,46.856,10.592,67.064 c-36.096,8.408-60.032,19.512-71.432,25.704C27.264,289.312,17.536,257.728,16.2,224z M52.056,330.344 c10.904-5.728,33.672-16.024,67.768-23.88c19.184,52.648,51.512,88.856,72.232,108.056 C134.216,407.576,83.912,375.888,52.056,330.344z M208,407.152c-18.248-16.232-52.056-51.48-72.032-104.032 c20.624-3.816,44.656-6.496,72.032-6.952V407.152z M208,280.168c-29.544,0.464-55.304,3.392-77.28,7.552 c-5.888-19.232-9.784-40.488-10.528-63.72H208V280.168z M208,208h-87.808c0.744-23.232,4.64-44.488,10.528-63.72 c21.976,4.16,47.736,7.088,77.28,7.552V208z M208,135.832c-27.376-0.456-51.408-3.136-72.032-6.952 C155.944,76.32,189.752,41.08,208,24.848V135.832z M368,25.816v92.376L316.04,72L368,25.816z M321.112,46.088L291.96,72 l50.8,45.152c-8.864,2.936-19.176,5.832-30.752,8.488c-19.248-52.712-51.384-88.896-72.04-108.072 C268.76,21.024,296.312,30.68,321.112,46.088z M224,24.832c18.28,16.232,52.096,51.592,72.04,104.104 c-20.544,3.776-44.624,6.416-72.04,6.872V24.832z M240,414.424c-0.056,0-0.104,0.008-0.16,0.016 c0.056-0.048,0.104-0.096,0.16-0.144V414.424z M240,391.736c-5.984,6.288-11.464,11.472-16,15.472V296.08 c5.12,0.104,10.4,0.296,16,0.6V391.736z M240,280.656c-5.584-0.288-10.856-0.48-16-0.576V224h16V280.656z M240,192v16h-16 v-56.096c29.52-0.472,55.32-3.456,77.264-7.624c1.56,5.096,2.944,10.336,4.2,15.72H272C254.352,160,240,174.352,240,192z M468.296,480H272c-8.824,0-16-7.176-16-16c0-8.824,7.176-16,16-16h196.296c-2.736,4.712-4.296,10.176-4.296,16 C464,469.824,465.56,475.288,468.296,480z M480,176v256H272c-5.824,0-11.288,1.56-16,4.296V192c0-8.824,7.176-16,16-16H480z M402.384,144c2.056,5.312,3.864,10.64,5.432,16H321.88c-1.424-6.552-3.04-12.896-4.872-19.048 c15.496-3.608,28.68-7.68,39.472-11.6L372.96,144H402.384z"/> </g> </g> </g> </g>
</svg>