<!DOCTYPE svg PUBLIC "-//W3C//DTD SVG 1.1//EN" "http://www.w3.org/Graphics/SVG/1.1/DTD/svg11.dtd">
<!-- Uploaded to: SVG Repo, www.svgrepo.com, Transformed by: SVG Repo Mixer Tools -->
<svg fill="#ffffff" version="1.1" id="Capa_1" xmlns="http://www.w3.org/2000/svg" xmlns:xlink="http://www.w3.org/1999/xlink" width="800px" height="800px" viewBox="0 0 124.498 124.498" xml:space="preserve">
<g id="SVGRepo_bgCarrier" stroke-width="0"/>
<g id="SVGRepo_tracerCarrier" stroke-linecap="round" stroke-linejoin="round"/>
<g id="SVGRepo_iconCarrier"> <g> <g> <circle cx="41.686" cy="29.656" r="8.472"/> <circle cx="10.637" cy="58.798" r="5.414"/> <circle cx="82.811" cy="29.656" r="8.472"/> <path d="M119.807,67.073c-0.082-0.047-0.168-0.08-0.254-0.111c-0.902-0.537-3.451-2.228-4.371-2.447 c-0.004-0.001-0.011-0.002-0.015-0.004l-1.308,1.373l-1.348-1.357c-0.539,0.133-6.963,3.893-9.556,1.631 c0.813-0.947,1.054-2.318,0.494-3.525c-4.772-10.336-8.542-18.5-14.97-22.441c-0.168-0.104-0.344-0.183-0.521-0.252 c-0.943-0.623-2.003-1.079-3.083-1.338c-0.006-0.001-0.015-0.002-0.021-0.004l-2.049,2.149l-2.109-2.125 c-0.84,0.206-3.1,1.321-3.389,1.498c-0.346,0.211-0.687,0.425-1.023,0.644c-0.863,0.459-8.604,4.893-14.007,18.501 c-5.251-13.198-12.699-17.752-13.906-18.42c-1.032-0.667-1.972-1.22-2.133-1.261c-0.771-0.431-1.601-0.757-2.441-0.962 l-2.111,2.125l-2.046-2.149c-0.008,0.002-0.016,0.002-0.021,0.004c-1.08,0.259-2.139,0.715-3.084,1.338 c-0.179,0.07-0.354,0.148-0.522,0.252c-6.426,3.942-10.197,12.105-14.969,22.441c-0.56,1.207-0.319,2.576,0.494,3.523 c-2.593,2.262-9.017-1.498-9.555-1.63l-1.348,1.358l-1.309-1.375c-0.004,0.002-0.009,0.004-0.013,0.005 c-0.92,0.22-3.47,1.909-4.372,2.446c-0.086,0.033-0.172,0.065-0.255,0.111C4.497,67.181,0,69.833,0,77.599 c0,1.062,0.861,1.925,1.924,1.925c1.064,0,1.926-0.862,1.926-1.925c0-2.566,0.601-4.297,1.243-5.42v2.732L2.974,87.03h2.398 l0.002,13.799c0,1.373,1.112,2.485,2.483,2.484c1.372,0,2.484-1.111,2.484-2.484L10.339,87.03h0.354v13.799 c0,1.373,1.112,2.484,2.482,2.484c1.375,0,2.485-1.111,2.485-2.484l0.002-13.799h2.749l-2.233-12.154V71.31 c0.777,0.285,1.606,0.466,2.488,0.466c1.843,0,3.928-0.79,6.331-3.085c0.508-0.484,0.715-1.163,0.623-1.809 c0.592-0.327,1.092-0.83,1.396-1.491c2.131-4.614,4.042-8.746,6-12.098v11.394c0,0.885,0.173,1.71,0.472,2.471 c-0.021,0.17-0.038,0.342-0.038,0.52l0.004,31.496c0,2.148,1.739,3.888,3.886,3.887c2.147,0,3.888-1.74,3.888-3.887l-0.002-27.03 c0.153,0.007,0.308,0.021,0.462,0.021c0.03,0,0.061-0.004,0.089-0.004v27.014c0,2.146,1.741,3.887,3.888,3.887 c0.002,0,0.002,0,0.002,0c2.145,0,3.886-1.74,3.886-3.887l0.002-31.303c0.51-0.943,0.806-2.012,0.806-3.184V52.744 c0.016,0.043,0.01-0.418,0.006-1.179c2.024,2.554,4.323,6.285,6.257,11.593c0.494,1.354,1.773,2.195,3.137,2.195 c0.378,0,0.766-0.064,1.143-0.203c0.568-0.207,1.036-0.562,1.398-0.995c0.359,0.417,0.816,0.759,1.371,0.962 c0.376,0.137,0.763,0.202,1.144,0.202c1.361,0,2.641-0.841,3.135-2.196c1.814-4.981,3.962-8.581,5.904-11.122 c0.115,0.292,0.197,0.6,0.225,0.925c0.021-0.06,0.04-0.125,0.061-0.184v7.136l-4.346,28.366c1.626,0.807,3.369,1.366,5.154,1.737 v9.188c0,2.146,1.738,3.887,3.886,3.887c0,0,0,0,0.002,0c2.146,0,3.886-1.74,3.886-3.887v-8.594 c0.187-0.007,0.368-0.016,0.553-0.023l-0.002,8.617c0,2.146,1.74,3.887,3.889,3.887c2.146,0.001,3.886-1.739,3.886-3.887 l0.003-9.613c3.084-0.631,5.109-1.312,5.109-1.312l-4.676-29.447V53.29c1.959,3.352,3.869,7.484,6,12.098 c0.305,0.66,0.805,1.164,1.396,1.49c-0.091,0.646,0.116,1.324,0.624,1.81c2.402,2.295,4.488,3.085,6.33,3.085 c0.882,0,1.711-0.182,2.488-0.466v3.567l-2.233,12.152h2.749v13.801c0,1.371,1.112,2.483,2.484,2.483 c1.373,0,2.484-1.112,2.484-2.483V87.026h0.354l-0.002,13.801c0,1.371,1.11,2.483,2.483,2.483c1.371,0,2.482-1.112,2.482-2.483 l0.002-13.801h2.398l-2.121-12.119v-2.732c0.643,1.125,1.244,2.854,1.244,5.421c0,1.063,0.861,1.925,1.926,1.925 c1.062,0,1.924-0.861,1.924-1.925C124.494,69.833,119.998,67.182,119.807,67.073z"/> <circle cx="113.859" cy="58.798" r="5.414"/> </g> </g> </g>
</svg>